<svg width="416" height="416" viewBox="0 0 416 416" fill="none" xmlns="http://www.w3.org/2000/svg">
<path d="M64.7358 372.507C57.8358 372.507 51.8175 371.318 46.6808 368.942C41.6208 366.565 37.6725 363.23 34.8358 358.937C31.9992 354.643 30.3892 349.583 30.0058 343.757L47.6008 342.952C47.9842 346.172 48.9042 348.932 50.3608 351.232C51.8175 353.455 53.7342 355.142 56.1108 356.292C58.5642 357.442 61.5158 358.017 64.9658 358.017C69.4125 358.017 72.7858 357.212 75.0858 355.602C77.4625 353.992 78.6508 351.653 78.6508 348.587C78.6508 346.593 78.1908 344.907 77.2708 343.527C76.3508 342.07 74.5492 340.767 71.8658 339.617C69.2592 338.467 65.4642 337.317 60.4808 336.167C53.2742 334.557 47.6008 332.755 43.4608 330.762C39.3975 328.768 36.3692 326.277 34.3758 323.287C32.4592 320.297 31.5008 316.463 31.5008 311.787C31.5008 306.957 32.7275 302.702 35.1808 299.022C37.6342 295.265 41.1608 292.352 45.7608 290.282C50.3608 288.212 55.8042 287.177 62.0908 287.177C68.6842 287.177 74.3192 288.365 78.9958 290.742C83.7492 293.042 87.4675 296.262 90.1508 300.402C92.8342 304.542 94.4825 309.333 95.0958 314.777L77.6158 315.697C77.3092 312.86 76.5042 310.407 75.2008 308.337C73.8975 306.19 72.0958 304.542 69.7958 303.392C67.5725 302.242 64.9275 301.667 61.8608 301.667C57.9508 301.667 54.8458 302.548 52.5458 304.312C50.3225 306.075 49.2108 308.375 49.2108 311.212C49.2108 313.282 49.7092 314.968 50.7058 316.272C51.7025 317.575 53.3892 318.725 55.7658 319.722C58.1425 320.718 61.6308 321.677 66.2308 322.597C73.6675 324.13 79.5708 326.047 83.9408 328.347C88.3875 330.647 91.5692 333.407 93.4858 336.627C95.4025 339.77 96.3608 343.488 96.3608 347.782C96.3608 352.842 95.0575 357.25 92.4508 361.007C89.9208 364.687 86.2792 367.523 81.5258 369.517C76.7725 371.51 71.1758 372.507 64.7358 372.507Z" fill="#FCF403"/>
<path d="M345.713 303.737H321.218V289.017H387.688V303.737H363.308V370.667H345.713V303.737Z" fill="#FCF403"/>
<path d="M8 252.444H74.6667C86.4541 252.444 97.7587 257.127 106.094 265.462C114.429 273.797 119.111 285.101 119.111 296.889V363.556C119.111 375.343 114.429 386.648 106.094 394.982C97.7587 403.317 86.4541 408 74.6667 408H52.4444C40.657 408 29.3524 403.317 21.0175 394.982C12.6825 386.648 8 375.343 8 363.556V208C8 154.957 29.0714 104.086 66.5786 66.5786C104.086 29.0714 154.957 8 208 8C261.043 8 311.914 29.0714 349.421 66.5786C386.929 104.086 408 154.957 408 208V363.556C408 375.343 403.317 386.648 394.982 394.982C386.648 403.317 375.343 408 363.556 408H341.333C329.546 408 318.241 403.317 309.906 394.982C301.571 386.648 296.889 375.343 296.889 363.556V296.889C296.889 285.101 301.571 273.797 309.906 265.462C318.241 257.127 329.546 252.444 341.333 252.444H408" stroke="#FCF403" stroke-width="16" stroke-linecap="round" stroke-linejoin="round"/>
</svg>
